Coordinates
version=1
nRows=24
nColumns=38
inDegrees=no

Units are S.I. units (second, meters, Newtons, ...)
If the header above contains a line with 'inDegrees', this indicates whether rotational values are in degrees (yes) or radians (no).

endheader
time	pelvis_tilt	pelvis_list	pelvis_rotation	pelvis_tx	pelvis_ty	pelvis_tz	hip_flexion_r	hip_adduction_r	hip_rotation_r	knee_angle_r	ankle_angle_r	subtalar_angle_r	mtp_angle_r	hip_flexion_l	hip_adduction_l	hip_rotation_l	knee_angle_l	ankle_angle_l	subtalar_angle_l	mtp_angle_l	lumbar_extension	lumbar_bending	lumbar_rotation	arm_flex_r	arm_add_r	arm_rot_r	elbow_flex_r	pro_sup_r	wrist_flex_r	wrist_dev_r	arm_flex_l	arm_add_l	arm_rot_l	elbow_flex_l	pro_sup_l	wrist_flex_l	wrist_dev_l
1.57	-2.69714	1.20673	1.21633	0.746627	-0.446953	1.00642	0.577952	0.134633	-0.115894	0.179131	-0.189331	0	0	0.229042	-0.21039	0.00435762	0.908065	-0.417355	0	0	0.262123	0.190353	-0.152857	-0.0685743	-0.234776	0.458192	0.317632	1.5708	0	0	-0.0359747	-0.255474	0.383586	0.614601	1.17529	0	0
1.58	-2.68305	1.20851	1.21311	0.746155	-0.459489	1.00784	0.560667	0.136382	-0.127089	0.177077	-0.178502	0	0	0.257497	-0.212046	0.0323252	0.95979	-0.43255	0	0	0.257544	0.189912	-0.155503	-0.0680256	-0.236218	0.42748	0.335437	1.5708	0	0	-0.0336342	-0.257772	0.413545	0.599112	1.14309	0	0
1.59	-2.67488	1.21077	1.21542	0.745654	-0.471964	1.0095	0.543743	0.136713	-0.136648	0.174294	-0.168748	0	0	0.284936	-0.210424	0.0575149	1.00598	-0.428979	0	0	0.253113	0.186849	-0.154731	-0.0694702	-0.235951	0.389121	0.353788	1.5708	0	0	-0.0280583	-0.261985	0.454853	0.582767	1.10498	0	0
1.6	-2.67148	1.21388	1.22031	0.744996	-0.484363	1.01147	0.526664	0.136504	-0.143567	0.171216	-0.161754	0	0	0.309891	-0.206543	0.0779291	1.04643	-0.410344	0	0	0.248896	0.181774	-0.151972	-0.0695143	-0.235364	0.358026	0.37006	1.5708	0	0	-0.0241139	-0.264154	0.486701	0.566242	1.07822	0	0
1.61	-2.67089	1.21917	1.22446	0.744126	-0.496632	1.01382	0.507667	0.136261	-0.147248	0.168431	-0.155992	0	0	0.330924	-0.201387	0.0918076	1.08221	-0.382583	0	0	0.241326	0.175663	-0.143056	-0.0704881	-0.234333	0.322893	0.388086	1.5708	0	0	-0.0173813	-0.267618	0.525864	0.550155	1.0512	0	0
1.62	-2.67238	1.22495	1.22869	0.743148	-0.508947	1.01635	0.487555	0.135983	-0.14961	0.164868	-0.152291	0	0	0.350074	-0.195671	0.101311	1.11381	-0.350973	0	0	0.234493	0.168844	-0.133233	-0.0707444	-0.233315	0.293692	0.404545	1.5708	0	0	-0.0134832	-0.269882	0.556233	0.53549	1.03512	0	0
1.63	-2.67672	1.23067	1.23389	0.742057	-0.521268	1.01899	0.46699	0.135522	-0.151482	0.160514	-0.149848	0	0	0.368309	-0.189577	0.106619	1.14116	-0.314488	0	0	0.227951	0.161504	-0.120728	-0.0722504	-0.232123	0.263598	0.422027	1.5708	0	0	-0.0100414	-0.272942	0.587081	0.52356	1.02058	0	0
1.64	-2.68523	1.23554	1.24095	0.740858	-0.533449	1.02158	0.447862	0.134731	-0.155357	0.156556	-0.149019	0	0	0.386748	-0.183293	0.107455	1.16363	-0.280874	0	0	0.222835	0.153609	-0.106904	-0.0733634	-0.231925	0.239746	0.439809	1.5708	0	0	-0.00887886	-0.276124	0.612248	0.514416	1.01114	0	0
1.65	-2.69427	1.24129	1.24807	0.739734	-0.54553	1.02428	0.42753	0.133565	-0.158559	0.15167	-0.149294	0	0	0.403399	-0.176897	0.105965	1.18038	-0.250631	0	0	0.216699	0.145468	-0.0935396	-0.0744566	-0.232405	0.218612	0.459091	1.5708	0	0	-0.00930219	-0.279474	0.631804	0.507843	1.00616	0	0
1.66	-2.70535	1.24788	1.25573	0.738584	-0.557616	1.02704	0.40619	0.132206	-0.159316	0.146036	-0.150385	0	0	0.417994	-0.170839	0.100806	1.19094	-0.221752	0	0	0.209541	0.1369	-0.0792536	-0.0767235	-0.233579	0.198269	0.481413	1.5708	0	0	-0.0109386	-0.283497	0.648215	0.504131	1.00224	0	0
1.67	-2.71908	1.25442	1.26495	0.737413	-0.569682	1.02978	0.385272	0.130364	-0.159877	0.140413	-0.151997	0	0	0.431919	-0.165344	0.0926277	1.1951	-0.198732	0	0	0.203109	0.127872	-0.0656025	-0.0774041	-0.235884	0.185946	0.502499	1.5708	0	0	-0.0149804	-0.287524	0.658041	0.502514	0.999935	0	0
1.68	-2.73297	1.26061	1.27392	0.736244	-0.581669	1.03245	0.364908	0.12859	-0.161947	0.134903	-0.154265	0	0	0.445158	-0.161076	0.0827993	1.19271	-0.17655	0	0	0.196723	0.119254	-0.0520123	-0.0783303	-0.238796	0.176189	0.524681	1.5708	0	0	-0.0200728	-0.291645	0.663671	0.5028	0.998204	0	0
1.69	-2.74725	1.26639	1.28286	0.735113	-0.593627	1.03506	0.344765	0.126667	-0.165166	0.128925	-0.157454	0	0	0.45783	-0.157876	0.0712762	1.18479	-0.158071	0	0	0.190886	0.111046	-0.0388031	-0.0796367	-0.243205	0.171022	0.548559	1.5708	0	0	-0.0265416	-0.29573	0.665453	0.504903	0.997067	0	0
1.7	-2.76089	1.27241	1.29109	0.734042	-0.605538	1.03762	0.323737	0.124627	-0.168245	0.121903	-0.161897	0	0	0.469411	-0.155911	0.0578878	1.17201	-0.143986	0	0	0.184792	0.103263	-0.0263107	-0.0806228	-0.249386	0.171486	0.573646	1.5708	0	0	-0.0336867	-0.299509	0.664456	0.507598	0.996628	0	0
1.71	-2.77423	1.27752	1.299	0.733069	-0.617362	1.04001	0.303555	0.122484	-0.171812	0.114855	-0.166684	0	0	0.480982	-0.154961	0.0436	1.15434	-0.134798	0	0	0.179985	0.0960979	-0.0154358	-0.0801552	-0.256879	0.177525	0.597569	1.5708	0	0	-0.0420183	-0.30264	0.660231	0.510367	0.996131	0	0
1.72	-2.7852	1.28203	1.30463	0.732182	-0.629116	1.04221	0.28361	0.120993	-0.175744	0.107453	-0.172562	0	0	0.491939	-0.155601	0.0279763	1.13199	-0.127376	0	0	0.175381	0.0900076	-0.0054621	-0.0795254	-0.265799	0.186888	0.622496	1.5708	0	0	-0.0510255	-0.305184	0.652855	0.513803	0.995872	0	0
1.73	-2.79512	1.28569	1.3095	0.731363	-0.640758	1.04418	0.264473	0.119857	-0.180083	0.0996725	-0.179273	0	0	0.502656	-0.157236	0.0109131	1.10489	-0.119474	0	0	0.171608	0.084635	0.00334652	-0.078667	-0.275409	0.197867	0.647842	1.5708	0	0	-0.0605589	-0.307064	0.642915	0.517315	0.996195	0	0
1.74	-2.80698	1.28872	1.31556	0.730554	-0.652421	1.0459	0.246113	0.118416	-0.184269	0.0917143	-0.186641	0	0	0.512338	-0.158884	-0.00760039	1.0727	-0.111928	0	0	0.168999	0.0790991	0.0118526	-0.0773987	-0.285349	0.210214	0.672848	1.5708	0	0	-0.0710057	-0.308535	0.631321	0.520868	0.997281	0	0
1.75	-2.8193	1.29146	1.3217	0.729762	-0.664062	1.04737	0.228053	0.116959	-0.187593	0.0834281	-0.194234	0	0	0.521096	-0.160632	-0.0272784	1.03639	-0.105998	0	0	0.166827	0.0736537	0.0195485	-0.0750633	-0.295471	0.223793	0.696889	1.5708	0	0	-0.0820961	-0.309669	0.618345	0.524541	0.999609	0	0
1.76	-2.83123	1.29385	1.32702	0.728982	-0.675649	1.04858	0.210451	0.115734	-0.189531	0.0753875	-0.201576	0	0	0.528866	-0.163443	-0.0501833	0.995495	-0.102528	0	0	0.164712	0.0686245	0.0264719	-0.072031	-0.305233	0.236809	0.720292	1.5708	0	0	-0.0938511	-0.310047	0.602238	0.528381	1.00347	0	0
1.77	-2.84198	1.29529	1.33116	0.728266	-0.687254	1.04949	0.1939	0.114968	-0.190718	0.0678282	-0.207388	0	0	0.536395	-0.167376	-0.0754557	0.95035	-0.102034	0	0	0.163594	0.064414	0.0327149	-0.0694163	-0.313794	0.246175	0.743009	1.5708	0	0	-0.105725	-0.309569	0.585506	0.531506	1.00829	0	0
1.78	-2.85077	1.29605	1.33435	0.727736	-0.698955	1.05007	0.177964	0.114376	-0.193119	0.0609121	-0.211498	0	0	0.543424	-0.171709	-0.102098	0.902249	-0.103951	0	0	0.163483	0.0610659	0.0371529	-0.0674472	-0.320919	0.251568	0.764847	1.5708	0	0	-0.117498	-0.308648	0.57089	0.533994	1.01241	0	0
1.79	-2.8562	1.29635	1.33505	0.727418	-0.71071	1.05037	0.162696	0.114402	-0.197791	0.0549767	-0.21486	0	0	0.549396	-0.176044	-0.129147	0.850814	-0.108546	0	0	0.163654	0.0589391	0.0404341	-0.0661892	-0.327418	0.254041	0.786266	1.5708	0	0	-0.128415	-0.306768	0.558013	0.5351	1.01619	0	0
1.8	-2.86248	1.29632	1.3352	0.726945	-0.72231	1.05034	0.148984	0.114356	-0.202904	0.0511357	-0.2174	0	0	0.553696	-0.179403	-0.15593	0.79492	-0.116031	0	0	0.163479	0.0567762	0.0449906	-0.064763	-0.332742	0.254	0.806786	1.5708	0	0	-0.138293	-0.305042	0.54642	0.536147	1.02059	0	0
